<?xml version="1.0" standalone="no"?>
<!DOCTYPE svg PUBLIC "-//W3C//DTD SVG 20010904//EN"
 "http://www.w3.org/TR/2001/REC-SVG-20010904/DTD/svg10.dtd">
<svg version="1.0" xmlns="http://www.w3.org/2000/svg"
 width="370.000000pt" height="370.000000pt" viewBox="0 0 370.000000 370.000000"
 preserveAspectRatio="xMidYMid meet">
<metadata>
Created by potrace 1.14, written by Peter Selinger 2001-2017
</metadata>
<g transform="translate(0.000000,370.000000) scale(0.100000,-0.100000)"
fill="#000000" stroke="none">
<path d="M1683 3103 c-37 -75 -78 -152 -90 -170 -13 -19 -23 -36 -23 -38 0 -2
-22 -41 -48 -87 -58 -99 -101 -179 -172 -313 -29 -55 -57 -103 -62 -106 -5 -3
-10 -12 -11 -20 -2 -8 -7 -20 -11 -28 -26 -40 -197 -391 -202 -411 0 -3 -6
-18 -13 -35 -7 -16 -14 -37 -16 -45 -13 -62 -17 -68 -38 -64 -12 3 -38 6 -57
9 -19 2 -35 4 -35 5 0 15 -272 18 -336 3 -183 -41 -278 -148 -282 -315 -2 -75
-6 -83 -57 -118 -87 -59 -189 -153 -212 -193 -8 -17 -7 -18 14 -12 21 6 126
45 173 64 11 5 44 16 73 26 l53 18 36 -34 c20 -19 46 -43 58 -54 31 -28 240
-223 282 -263 19 -17 37 -32 40 -32 3 0 15 -10 27 -22 63 -66 246 -197 299
-214 9 -4 17 -10 17 -15 0 -5 5 -9 10 -9 9 0 54 -19 125 -51 11 -5 30 -11 43
-14 13 -2 32 -7 42 -10 22 -7 54 -14 95 -21 41 -6 192 -6 235 1 19 3 47 7 61
9 78 12 291 98 384 157 17 10 39 23 50 29 26 13 59 34 65 41 3 3 32 25 65 49
33 24 62 47 63 52 2 4 8 8 14 8 9 0 105 82 191 162 l29 27 58 -44 c32 -25 62
-45 66 -45 4 0 12 -6 18 -13 15 -18 252 -177 264 -177 5 0 15 -7 22 -15 7 -8
16 -12 21 -9 5 3 12 -2 15 -10 3 -9 11 -16 18 -16 6 0 31 -11 56 -24 37 -20
129 -43 150 -39 3 1 22 4 44 7 21 4 57 21 79 38 l41 33 -37 8 c-20 5 -37 13
-37 18 0 5 0 12 0 17 0 4 19 8 42 9 49 3 63 6 98 20 30 13 74 54 78 72 3 15
42 50 55 51 4 0 18 12 31 27 26 31 18 48 -24 50 -76 5 -160 26 -160 39 0 8 6
14 13 15 112 6 170 37 206 107 12 22 11 22 -56 23 -84 2 -183 9 -333 25 -30 4
-77 8 -105 9 -27 2 -50 5 -50 6 0 1 -18 3 -40 4 -22 2 -40 4 -40 5 0 1 -18 4
-40 5 -38 3 -78 8 -185 20 -24 3 -47 9 -50 13 -4 7 -45 18 -142 38 -5 1 -9 2
-10 3 -2 1 -18 4 -36 7 -65 8 -70 20 -19 42 25 11 52 25 59 31 7 6 22 19 34
29 26 21 69 89 77 122 5 18 22 32 67 53 96 44 157 121 175 221 6 27 14 37 37
45 79 28 178 154 174 223 -1 23 -11 26 -65 17 -39 -6 -34 15 6 33 33 14 93 66
131 112 14 17 42 119 42 152 0 20 -3 22 -32 14 -18 -5 -46 -12 -63 -15 -16 -2
-42 -7 -57 -10 -39 -8 -35 7 9 30 92 50 154 145 158 243 3 75 -6 86 -53 64
-20 -9 -40 -21 -43 -25 -3 -5 -10 -9 -15 -9 -13 -1 -42 -12 -149 -58 -36 -16
-154 -59 -175 -65 -8 -2 -51 -18 -95 -35 -44 -17 -84 -33 -90 -34 -5 -2 -18
-6 -27 -9 -21 -8 -51 -18 -58 -19 -3 -1 -36 -14 -74 -30 -38 -15 -75 -28 -82
-28 -8 0 -14 -5 -14 -12 0 -6 -3 -8 -6 -5 -4 3 -16 1 -28 -5 -11 -7 -25 -12
-31 -13 -11 0 -89 -30 -224 -87 -51 -21 -96 -36 -99 -34 -3 3 3 25 14 48 25
56 23 131 -5 187 -14 26 -19 50 -15 59 32 73 23 181 -18 226 -15 17 -18 17
-23 3 -4 -8 -13 -18 -22 -21 -12 -5 -14 1 -7 36 17 97 6 153 -41 206 -20 22
-21 22 -38 2 -9 -11 -15 -20 -13 -20 2 0 -9 -14 -25 -31 -16 -18 -32 -30 -34
-27 -2 2 2 24 9 48 18 64 12 119 -18 166 -18 27 -63 74 -71 74 -2 0 -34 -62
-72 -137z"/>
</g>
</svg>
